<mxfile host="app.diagrams.net" modified="2022-01-02T09:57:16.473Z" agent="5.0 (Windows NT 10.0; Win64; x64) AppleWebKit/537.36 (KHTML, like Gecko) Chrome/96.0.4664.110 Safari/537.36" etag="i3MkknOguQKuw4c6OnlX" version="16.1.0" type="github">
  <diagram id="5p-yBhCcSQvWqAFZNiMJ" name="Page-1">
    <mxGraphModel dx="1102" dy="882" grid="1" gridSize="10" guides="1" tooltips="1" connect="1" arrows="1" fold="1" page="1" pageScale="1" pageWidth="827" pageHeight="1169" math="0" shadow="0">
      <root>
        <mxCell id="0" />
        <mxCell id="1" parent="0" />
        <mxCell id="nmQQ5iYsoZRpjPEovlX9-101" value="" style="rounded=0;whiteSpace=wrap;html=1;fontSize=18;fillColor=#f5f5f5;gradientColor=#b3b3b3;strokeColor=none;glass=0;" parent="1" vertex="1">
          <mxGeometry x="20" y="70" width="790" height="270" as="geometry" />
        </mxCell>
        <mxCell id="nmQQ5iYsoZRpjPEovlX9-7" value="&lt;h1&gt;&lt;font style=&quot;font-size: 18px&quot;&gt;Help&lt;/font&gt;&lt;/h1&gt;" style="text;html=1;strokeColor=#82b366;fillColor=#d5e8d4;spacing=5;spacingTop=-20;whiteSpace=wrap;overflow=hidden;rounded=1;gradientColor=#97d077;align=right;glass=1;sketch=1;shadow=1;" parent="1" vertex="1">
          <mxGeometry x="40" y="40" width="120" height="140" as="geometry" />
        </mxCell>
        <mxCell id="nmQQ5iYsoZRpjPEovlX9-29" value="&lt;h1&gt;&lt;font style=&quot;font-size: 18px&quot;&gt;Rewrite&lt;/font&gt;&lt;/h1&gt;&lt;div style=&quot;text-align: left&quot;&gt;&lt;br&gt;&lt;/div&gt;&lt;div style=&quot;text-align: left&quot;&gt;&lt;br&gt;&lt;/div&gt;" style="text;html=1;strokeColor=#b85450;fillColor=#f8cecc;spacing=5;spacingTop=-20;whiteSpace=wrap;overflow=hidden;rounded=1;gradientColor=#ea6b66;align=right;glass=1;sketch=1;shadow=1;" parent="1" vertex="1">
          <mxGeometry x="520" y="217.5" width="120" height="140" as="geometry" />
        </mxCell>
        <mxCell id="nmQQ5iYsoZRpjPEovlX9-54" value="&lt;h1&gt;&lt;font style=&quot;font-size: 18px&quot;&gt;Automate&lt;/font&gt;&lt;/h1&gt;&lt;div style=&quot;text-align: left&quot;&gt;&lt;br&gt;&lt;/div&gt;&lt;div style=&quot;text-align: left&quot;&gt;&lt;br&gt;&lt;/div&gt;" style="text;html=1;strokeColor=#b85450;fillColor=#f8cecc;spacing=5;spacingTop=-20;whiteSpace=wrap;overflow=hidden;rounded=1;gradientColor=#ea6b66;align=right;glass=1;shadow=1;sketch=1;" parent="1" vertex="1">
          <mxGeometry x="680" y="217.5" width="120" height="140" as="geometry" />
        </mxCell>
        <mxCell id="nmQQ5iYsoZRpjPEovlX9-91" value="&lt;h1&gt;&lt;font style=&quot;font-size: 18px&quot;&gt;Create&lt;/font&gt;&lt;/h1&gt;" style="text;html=1;strokeColor=#82b366;fillColor=#d5e8d4;spacing=5;spacingTop=-20;whiteSpace=wrap;overflow=hidden;rounded=1;gradientColor=#97d077;align=right;glass=1;sketch=1;shadow=1;" parent="1" vertex="1">
          <mxGeometry x="200" y="40" width="120" height="140" as="geometry" />
        </mxCell>
        <mxCell id="nmQQ5iYsoZRpjPEovlX9-92" value="&lt;h1&gt;&lt;font style=&quot;font-size: 18px&quot;&gt;Config&lt;/font&gt;&lt;/h1&gt;" style="text;html=1;strokeColor=#82b366;fillColor=#d5e8d4;spacing=5;spacingTop=-20;whiteSpace=wrap;overflow=hidden;rounded=1;gradientColor=#97d077;align=right;glass=1;shadow=1;sketch=1;" parent="1" vertex="1">
          <mxGeometry x="360" y="40" width="120" height="140" as="geometry" />
        </mxCell>
        <mxCell id="nmQQ5iYsoZRpjPEovlX9-93" value="&lt;h1&gt;&lt;font style=&quot;font-size: 18px&quot;&gt;Track&lt;/font&gt;&lt;/h1&gt;" style="text;html=1;strokeColor=#82b366;fillColor=#d5e8d4;spacing=5;spacingTop=-20;whiteSpace=wrap;overflow=hidden;rounded=1;gradientColor=#97d077;align=right;glass=1;sketch=1;shadow=1;" parent="1" vertex="1">
          <mxGeometry x="520" y="40" width="120" height="140" as="geometry" />
        </mxCell>
        <mxCell id="nmQQ5iYsoZRpjPEovlX9-94" value="&lt;h1&gt;&lt;font style=&quot;font-size: 19px&quot;&gt;Branch&lt;/font&gt;&lt;/h1&gt;" style="text;html=1;strokeColor=#d6b656;fillColor=#fff2cc;spacing=5;spacingTop=-20;whiteSpace=wrap;overflow=hidden;rounded=1;gradientColor=#ffd966;align=right;glass=1;sketch=1;shadow=1;" parent="1" vertex="1">
          <mxGeometry x="680" y="40" width="120" height="140" as="geometry" />
        </mxCell>
        <mxCell id="nmQQ5iYsoZRpjPEovlX9-95" value="&lt;h1&gt;&lt;font style=&quot;font-size: 18px&quot;&gt;Inspect&lt;/font&gt;&lt;/h1&gt;&lt;span style=&quot;color: rgba(0 , 0 , 0 , 0) ; font-size: 0px&quot;&gt;&lt;div style=&quot;text-align: left&quot;&gt;&lt;span&gt;%3CmxGraphModel%3E%3Croot%3E%3CmxCell%20id%3D%220%22%2F%3E%3CmxCell%20id%3D%221%22%20parent%3D%220%22%2F%3E%3CmxCell%20id%3D%222%22%20value%3D%22%26lt%3Bh1%26gt%3BSync%26lt%3B%2Fh1%26gt%3B%26lt%3Bdiv%26gt%3Bgit%20fetch%26lt%3B%2Fdiv%26gt%3B%26lt%3Bdiv%26gt%3Bgit%20pull%26lt%3B%2Fdiv%26gt%3B%26lt%3Bdiv%26gt%3Bgit%20push%26lt%3B%2Fdiv%26gt%3B%22%20style%3D%22text%3Bhtml%3D1%3BstrokeColor%3Dnone%3BfillColor%3Dnone%3Bspacing%3D5%3BspacingTop%3D-20%3BwhiteSpace%3Dwrap%3Boverflow%3Dhidden%3Brounded%3D0%3B%22%20vertex%3D%221%22%20parent%3D%221%22%3E%3CmxGeometry%20x%3D%22375%22%20y%3D%22200%22%20width%3D%2290%22%20height%3D%22140%22%20as%3D%22geometry%22%2F%3E%3C%2FmxCell%3E%3C%2Froot%3E%3C%2FmxGraphModel%3E&lt;/span&gt;&lt;/div&gt;&lt;/span&gt;" style="text;html=1;strokeColor=#d6b656;fillColor=#fff2cc;spacing=5;spacingTop=-20;whiteSpace=wrap;overflow=hidden;rounded=1;gradientColor=#ffd966;align=right;glass=1;shadow=1;sketch=1;" parent="1" vertex="1">
          <mxGeometry x="360" y="217.5" width="120" height="140" as="geometry" />
        </mxCell>
        <mxCell id="nmQQ5iYsoZRpjPEovlX9-75" value="1" style="ellipse;whiteSpace=wrap;html=1;aspect=fixed;fontSize=18;fontStyle=1;shadow=1;" parent="1" vertex="1">
          <mxGeometry x="20" y="20" width="55" height="55" as="geometry" />
        </mxCell>
        <mxCell id="nmQQ5iYsoZRpjPEovlX9-97" value="2" style="ellipse;whiteSpace=wrap;html=1;aspect=fixed;fontSize=18;fontStyle=1;shadow=1;" parent="1" vertex="1">
          <mxGeometry x="170" y="20" width="55" height="55" as="geometry" />
        </mxCell>
        <mxCell id="nmQQ5iYsoZRpjPEovlX9-98" value="3" style="ellipse;whiteSpace=wrap;html=1;aspect=fixed;fontSize=18;fontStyle=1;shadow=1;" parent="1" vertex="1">
          <mxGeometry x="330" y="20" width="55" height="55" as="geometry" />
        </mxCell>
        <mxCell id="nmQQ5iYsoZRpjPEovlX9-99" value="4" style="ellipse;whiteSpace=wrap;html=1;aspect=fixed;fontSize=18;fontStyle=1;shadow=1;" parent="1" vertex="1">
          <mxGeometry x="490" y="20" width="55" height="55" as="geometry" />
        </mxCell>
        <mxCell id="nmQQ5iYsoZRpjPEovlX9-100" value="5" style="ellipse;whiteSpace=wrap;html=1;aspect=fixed;fontSize=18;fontStyle=1;shadow=1;" parent="1" vertex="1">
          <mxGeometry x="660" y="20" width="55" height="55" as="geometry" />
        </mxCell>
        <mxCell id="nmQQ5iYsoZRpjPEovlX9-107" value="8" style="ellipse;whiteSpace=wrap;html=1;aspect=fixed;fontSize=18;fontStyle=1;shadow=1;" parent="1" vertex="1">
          <mxGeometry x="330" y="190" width="55" height="55" as="geometry" />
        </mxCell>
        <mxCell id="nmQQ5iYsoZRpjPEovlX9-108" value="9" style="ellipse;whiteSpace=wrap;html=1;aspect=fixed;fontSize=18;fontStyle=1;shadow=1;" parent="1" vertex="1">
          <mxGeometry x="490" y="190" width="55" height="55" as="geometry" />
        </mxCell>
        <mxCell id="nmQQ5iYsoZRpjPEovlX9-109" value="10" style="ellipse;whiteSpace=wrap;html=1;aspect=fixed;fontSize=18;fontStyle=1;shadow=1;" parent="1" vertex="1">
          <mxGeometry x="660" y="190" width="55" height="55" as="geometry" />
        </mxCell>
        <mxCell id="nmQQ5iYsoZRpjPEovlX9-110" value="&lt;h1&gt;&lt;font style=&quot;font-size: 18px&quot;&gt;Sync&lt;/font&gt;&lt;/h1&gt;" style="text;html=1;strokeColor=#d6b656;fillColor=#fff2cc;spacing=5;spacingTop=-20;whiteSpace=wrap;overflow=hidden;rounded=1;gradientColor=#ffd966;align=right;glass=1;shadow=1;sketch=1;" parent="1" vertex="1">
          <mxGeometry x="40" y="217.5" width="120" height="140" as="geometry" />
        </mxCell>
        <mxCell id="nmQQ5iYsoZRpjPEovlX9-111" value="&lt;h1&gt;&lt;font style=&quot;font-size: 18px&quot;&gt;Revert&lt;/font&gt;&lt;/h1&gt;&lt;div style=&quot;text-align: left&quot;&gt;&lt;br&gt;&lt;/div&gt;" style="text;html=1;strokeColor=#d6b656;fillColor=#fff2cc;spacing=5;spacingTop=-20;whiteSpace=wrap;overflow=hidden;rounded=1;gradientColor=#ffd966;align=right;glass=1;sketch=1;shadow=1;" parent="1" vertex="1">
          <mxGeometry x="200" y="217.5" width="120" height="140" as="geometry" />
        </mxCell>
        <mxCell id="nmQQ5iYsoZRpjPEovlX9-105" value="6" style="ellipse;whiteSpace=wrap;html=1;aspect=fixed;fontSize=18;fontStyle=1;shadow=1;" parent="1" vertex="1">
          <mxGeometry x="20" y="190" width="55" height="55" as="geometry" />
        </mxCell>
        <mxCell id="nmQQ5iYsoZRpjPEovlX9-106" value="7" style="ellipse;whiteSpace=wrap;html=1;aspect=fixed;fontSize=18;fontStyle=1;shadow=1;" parent="1" vertex="1">
          <mxGeometry x="170" y="190" width="55" height="55" as="geometry" />
        </mxCell>
        <mxCell id="nmQQ5iYsoZRpjPEovlX9-138" value="&lt;div style=&quot;color: rgb(0 , 0 , 0) ; font-family: &amp;#34;helvetica&amp;#34; ; text-align: left&quot;&gt;&lt;font face=&quot;Lucida Console&quot;&gt;git cherry-pick&lt;/font&gt;&lt;/div&gt;&lt;div style=&quot;color: rgb(0 , 0 , 0) ; font-family: &amp;#34;helvetica&amp;#34; ; text-align: left&quot;&gt;&lt;font face=&quot;Lucida Console&quot;&gt;git commit&lt;/font&gt;&lt;/div&gt;&lt;div style=&quot;color: rgb(0 , 0 , 0) ; font-family: &amp;#34;helvetica&amp;#34; ; text-align: left&quot;&gt;&lt;font face=&quot;Lucida Console&quot;&gt;git rebase&lt;/font&gt;&lt;/div&gt;&lt;div style=&quot;color: rgb(0 , 0 , 0) ; font-family: &amp;#34;helvetica&amp;#34; ; text-align: left&quot;&gt;&lt;font face=&quot;Lucida Console&quot;&gt;git reset&lt;/font&gt;&lt;/div&gt;" style="text;html=1;strokeColor=none;fillColor=none;align=center;verticalAlign=top;whiteSpace=wrap;rounded=0;shadow=1;glass=0;sketch=1;fillStyle=solid;fontFamily=Lucida Console;fontSize=12;fontColor=#330000;" parent="1" vertex="1">
          <mxGeometry x="520" y="250" width="120" height="80" as="geometry" />
        </mxCell>
        <mxCell id="nmQQ5iYsoZRpjPEovlX9-139" value="&lt;div style=&quot;color: rgb(0 , 0 , 0) ; font-family: &amp;quot;helvetica&amp;quot;&quot;&gt;&lt;div style=&quot;font-family: &amp;quot;helvetica&amp;quot;&quot;&gt;&lt;font face=&quot;Lucida Console&quot;&gt;git blame&lt;/font&gt;&lt;/div&gt;&lt;div style=&quot;font-family: &amp;quot;helvetica&amp;quot;&quot;&gt;&lt;font face=&quot;Lucida Console&quot;&gt;git diff&lt;br&gt;&lt;/font&gt;&lt;/div&gt;&lt;div style=&quot;font-family: &amp;quot;helvetica&amp;quot;&quot;&gt;&lt;font face=&quot;Lucida Console&quot;&gt;git log&lt;br&gt;&lt;/font&gt;&lt;/div&gt;&lt;div style=&quot;font-family: &amp;quot;helvetica&amp;quot;&quot;&gt;&lt;font face=&quot;Lucida Console&quot;&gt;git status&lt;br&gt;&lt;/font&gt;&lt;/div&gt;&lt;span style=&quot;font-family: &amp;quot;helvetica&amp;quot; ; color: rgba(0 , 0 , 0 , 0) ; font-size: 0px&quot;&gt;&lt;div style=&quot;&quot;&gt;%3CmxGraphModel%3E%3Croot%3E%3CmxCell%20id%3D%220%22%2F%3E%3CmxCell%20id%3D%221%22%20parent%3D%220%22%2F%3E%3CmxCell%20id%3D%222%22%20value%3D%22%26lt%3Bh1%26gt%3BSync%26lt%3B%2Fh1%26gt%3B%26lt%3Bdiv%26gt%3Bgit%20fetch%26lt%3B%2Fdiv%26gt%3B%26lt%3Bdiv%26gt%3Bgit%20pull%26lt%3B%2Fdiv%26gt%3B%26lt%3Bdiv%26gt%3Bgit%20push%26lt%3B%2Fdiv%26gt%3B%22%20style%3D%22text%3Bhtml%3D1%3BstrokeColor%3Dnone%3BfillColor%3Dnone%3Bspacing%3D5%3BspacingTop%3D-20%3BwhiteSpace%3Dwrap%3Boverflow%3Dhidden%3Brounded%3D0%3B%22%20vertex%3D%221%22%20parent%3D%221%22%3E%3CmxGeometry%20x%3D%22375%22%20y%3D%22200%22%20width%3D%2290%22%20height%3D%22140%22%20as%3D%22geometry%22%2F%3E%3C%2FmxCell%3E%3C%2Froot%3E%3C%2FmxGraphModel%3E&lt;/div&gt;&lt;/span&gt;&lt;/div&gt;" style="text;html=1;strokeColor=none;fillColor=none;align=left;verticalAlign=top;whiteSpace=wrap;rounded=0;shadow=1;glass=0;sketch=1;fillStyle=solid;fontFamily=Lucida Console;fontSize=12;fontColor=#330000;" parent="1" vertex="1">
          <mxGeometry x="363" y="250" width="120" height="80" as="geometry" />
        </mxCell>
        <mxCell id="nmQQ5iYsoZRpjPEovlX9-140" value="&lt;div style=&quot;color: rgb(0 , 0 , 0) ; font-family: &amp;#34;helvetica&amp;#34;&quot;&gt;&lt;div style=&quot;font-family: &amp;#34;helvetica&amp;#34;&quot;&gt;&lt;div style=&quot;font-family: &amp;#34;helvetica&amp;#34;&quot;&gt;&lt;font face=&quot;Lucida Console&quot;&gt;git clean&lt;/font&gt;&lt;/div&gt;&lt;div style=&quot;font-family: &amp;#34;helvetica&amp;#34;&quot;&gt;&lt;font face=&quot;Lucida Console&quot;&gt;git restore&lt;/font&gt;&lt;/div&gt;&lt;div style=&quot;font-family: &amp;#34;helvetica&amp;#34;&quot;&gt;&lt;font face=&quot;Lucida Console&quot;&gt;git rever&lt;/font&gt;t&lt;/div&gt;&lt;/div&gt;&lt;/div&gt;" style="text;html=1;strokeColor=none;fillColor=none;align=left;verticalAlign=top;whiteSpace=wrap;rounded=0;shadow=1;glass=0;sketch=1;fillStyle=solid;fontFamily=Lucida Console;fontSize=12;fontColor=#330000;" parent="1" vertex="1">
          <mxGeometry x="204" y="250" width="120" height="80" as="geometry" />
        </mxCell>
        <mxCell id="nmQQ5iYsoZRpjPEovlX9-141" value="&lt;div style=&quot;color: rgb(0 , 0 , 0) ; font-family: &amp;#34;helvetica&amp;#34;&quot;&gt;&lt;div style=&quot;font-family: &amp;#34;helvetica&amp;#34;&quot;&gt;&lt;div style=&quot;font-family: &amp;#34;helvetica&amp;#34;&quot;&gt;&lt;div style=&quot;font-family: &amp;#34;helvetica&amp;#34;&quot;&gt;&lt;font face=&quot;Lucida Console&quot;&gt;git fetch&lt;/font&gt;&lt;/div&gt;&lt;div style=&quot;font-family: &amp;#34;helvetica&amp;#34;&quot;&gt;&lt;font face=&quot;Lucida Console&quot;&gt;git pull&lt;/font&gt;&lt;/div&gt;&lt;div style=&quot;font-family: &amp;#34;helvetica&amp;#34;&quot;&gt;&lt;font face=&quot;Lucida Console&quot;&gt;git push&lt;/font&gt;&lt;/div&gt;&lt;/div&gt;&lt;/div&gt;&lt;/div&gt;" style="text;html=1;strokeColor=none;fillColor=none;align=left;verticalAlign=top;whiteSpace=wrap;rounded=0;shadow=1;glass=0;sketch=1;fillStyle=solid;fontFamily=Lucida Console;fontSize=12;fontColor=#330000;" parent="1" vertex="1">
          <mxGeometry x="44" y="250" width="120" height="80" as="geometry" />
        </mxCell>
        <mxCell id="nmQQ5iYsoZRpjPEovlX9-143" value="&lt;div style=&quot;color: rgb(0, 0, 0); font-family: helvetica;&quot;&gt;&lt;span style=&quot;font-family: &amp;quot;lucida console&amp;quot;&quot;&gt;git branch&lt;/span&gt;&lt;/div&gt;&lt;div style=&quot;color: rgb(0, 0, 0); font-family: helvetica;&quot;&gt;&lt;span style=&quot;font-family: &amp;quot;lucida console&amp;quot;&quot;&gt;git switch&lt;/span&gt;&lt;/div&gt;&lt;div style=&quot;color: rgb(0, 0, 0); font-family: helvetica;&quot;&gt;&lt;span style=&quot;font-family: &amp;quot;lucida console&amp;quot;&quot;&gt;git merge&lt;/span&gt;&lt;/div&gt;&lt;div style=&quot;color: rgb(0, 0, 0); font-family: helvetica;&quot;&gt;&lt;span style=&quot;font-family: &amp;quot;lucida console&amp;quot;&quot;&gt;git checkout&lt;/span&gt;&lt;/div&gt;&lt;div style=&quot;color: rgb(0, 0, 0); font-family: helvetica;&quot;&gt;&lt;span style=&quot;font-family: &amp;quot;lucida console&amp;quot;&quot;&gt;git stash&lt;/span&gt;&lt;/div&gt;" style="text;html=1;strokeColor=none;fillColor=none;align=left;verticalAlign=top;whiteSpace=wrap;rounded=0;shadow=1;glass=0;sketch=1;fillStyle=solid;fontFamily=Lucida Console;fontSize=12;fontColor=#330000;" parent="1" vertex="1">
          <mxGeometry x="684" y="75" width="120" height="90" as="geometry" />
        </mxCell>
        <mxCell id="nmQQ5iYsoZRpjPEovlX9-144" value="&lt;div style=&quot;color: rgb(0 , 0 , 0) ; font-family: &amp;#34;helvetica&amp;#34;&quot;&gt;&lt;span style=&quot;font-family: &amp;#34;lucida console&amp;#34;&quot;&gt;git add&lt;/span&gt;&lt;/div&gt;&lt;div style=&quot;color: rgb(0 , 0 , 0) ; font-family: &amp;#34;helvetica&amp;#34;&quot;&gt;&lt;span style=&quot;font-family: &amp;#34;lucida console&amp;#34;&quot;&gt;git commit&lt;/span&gt;&lt;/div&gt;&lt;div style=&quot;color: rgb(0 , 0 , 0) ; font-family: &amp;#34;helvetica&amp;#34;&quot;&gt;&lt;span style=&quot;font-family: &amp;#34;lucida console&amp;#34;&quot;&gt;git tag&lt;/span&gt;&lt;/div&gt;" style="text;html=1;strokeColor=none;fillColor=none;align=left;verticalAlign=top;whiteSpace=wrap;rounded=0;shadow=1;glass=0;sketch=1;fillStyle=solid;fontFamily=Lucida Console;fontSize=12;fontColor=#330000;" parent="1" vertex="1">
          <mxGeometry x="524" y="75" width="120" height="90" as="geometry" />
        </mxCell>
        <mxCell id="nmQQ5iYsoZRpjPEovlX9-145" value="&lt;div style=&quot;color: rgb(0 , 0 , 0) ; font-family: &amp;#34;helvetica&amp;#34;&quot;&gt;&lt;span style=&quot;font-family: &amp;#34;lucida console&amp;#34;&quot;&gt;git config&lt;/span&gt;&lt;/div&gt;&lt;div style=&quot;color: rgb(0 , 0 , 0) ; font-family: &amp;#34;helvetica&amp;#34;&quot;&gt;&lt;span style=&quot;font-family: &amp;#34;lucida console&amp;#34;&quot;&gt;git remote&lt;/span&gt;&lt;/div&gt;" style="text;html=1;strokeColor=none;fillColor=none;align=left;verticalAlign=top;whiteSpace=wrap;rounded=0;shadow=1;glass=0;sketch=1;fillStyle=solid;fontFamily=Lucida Console;fontSize=12;fontColor=#330000;" parent="1" vertex="1">
          <mxGeometry x="364" y="75" width="120" height="90" as="geometry" />
        </mxCell>
        <mxCell id="nmQQ5iYsoZRpjPEovlX9-146" value="&lt;div style=&quot;color: rgb(0 , 0 , 0) ; font-family: &amp;#34;helvetica&amp;#34;&quot;&gt;&lt;span style=&quot;font-family: &amp;#34;lucida console&amp;#34;&quot;&gt;git init&lt;/span&gt;&lt;/div&gt;&lt;div style=&quot;color: rgb(0 , 0 , 0) ; font-family: &amp;#34;helvetica&amp;#34;&quot;&gt;&lt;span style=&quot;font-family: &amp;#34;lucida console&amp;#34;&quot;&gt;git clone&lt;/span&gt;&lt;/div&gt;" style="text;html=1;strokeColor=none;fillColor=none;align=left;verticalAlign=top;whiteSpace=wrap;rounded=0;shadow=1;glass=0;sketch=1;fillStyle=solid;fontFamily=Lucida Console;fontSize=12;fontColor=#330000;" parent="1" vertex="1">
          <mxGeometry x="204" y="75" width="120" height="90" as="geometry" />
        </mxCell>
        <mxCell id="nmQQ5iYsoZRpjPEovlX9-147" value="&lt;div style=&quot;color: rgb(0 , 0 , 0) ; font-family: &amp;#34;helvetica&amp;#34;&quot;&gt;&lt;span style=&quot;font-family: &amp;#34;lucida console&amp;#34;&quot;&gt;git help&lt;/span&gt;&lt;/div&gt;" style="text;html=1;strokeColor=none;fillColor=none;align=left;verticalAlign=top;whiteSpace=wrap;rounded=0;shadow=1;glass=0;sketch=1;fillStyle=solid;fontFamily=Lucida Console;fontSize=12;fontColor=#330000;" parent="1" vertex="1">
          <mxGeometry x="45" y="75" width="120" height="90" as="geometry" />
        </mxCell>
      </root>
    </mxGraphModel>
  </diagram>
</mxfile>
